# Blender 4.1.1
# www.blender.org
mtllib Circulo.mtl
o Circle
v 0.000000 0.000000 0.000000
v 0.000000 -1.000000 0.000000
v -0.309017 -0.951057 0.000000
v -0.587785 -0.809017 0.000000
v -0.809017 -0.587785 0.000000
v -0.951057 -0.309017 0.000000
v -1.000000 0.000000 0.000000
v -0.951057 0.309017 -0.000000
v -0.809017 0.587785 -0.000000
v -0.587785 0.809017 -0.000000
v -0.309017 0.951057 -0.000000
v 0.000000 1.000000 -0.000000
v 0.309017 0.951057 -0.000000
v 0.587785 0.809017 -0.000000
v 0.809017 0.587785 -0.000000
v 0.951057 0.309017 -0.000000
v 1.000000 0.000000 0.000000
v 0.951057 -0.309017 0.000000
v 0.809017 -0.587785 0.000000
v 0.587785 -0.809017 0.000000
v 0.309017 -0.951057 0.000000
vn -0.0000 -0.0000 -1.0000
s 0
f 1//1 2//1 3//1
f 1//1 3//1 4//1
f 1//1 4//1 5//1
f 1//1 5//1 6//1
f 1//1 6//1 7//1
f 1//1 7//1 8//1
f 1//1 8//1 9//1
f 1//1 9//1 10//1
f 1//1 10//1 11//1
f 1//1 11//1 12//1
f 1//1 12//1 13//1
f 1//1 13//1 14//1
f 1//1 14//1 15//1
f 1//1 15//1 16//1
f 1//1 16//1 17//1
f 1//1 17//1 18//1
f 1//1 18//1 19//1
f 1//1 19//1 20//1
f 1//1 20//1 21//1
f 1//1 21//1 2//1
